<svg preserveAspectRatio="none" width="100%" height="100%" overflow="visible" style="display: block;" viewBox="0 0 110 173" fill="none" xmlns="http://www.w3.org/2000/svg">
<g id="&#227;&#131;&#173;&#227;&#130;&#180;&#231;&#156;&#159;&#227;&#130;&#147;&#228;&#184;&#173;" clip-path="url(#clip0_0_8)">
<path id="Vector" d="M20.1209 78.6911L21.0419 67.9272V56.5149L20.1209 45.8066H27.5163L26.5953 56.5705V67.9828L27.5163 78.6911H20.1209ZM39.6 73.4759L28.7721 62.008V61.4615L38.5488 51.8463L41.786 45.8159H49.8419V46.2513L34.586 60.6L46.2047 73.1517L51.814 78.2094V78.7559L42.9023 79.1357L39.6 73.4852V73.4759Z" fill="var(--fill-0, white)"/>
<path id="Vector_2" d="M60.7814 78.7467L72.986 49.6694L74.0744 45.9178L78.6046 45.5936L91.2093 78.6911H84.5023L82.7814 70.4839H68.6232L66.5581 78.7467H60.7721H60.7814ZM76.0279 51.133L70.2419 66.6767H81.4698L76.0279 51.133Z" fill="var(--fill-0, white)"/>
<path id="Vector_3" d="M20.1209 124.257L21.0419 113.493V102.081L20.1209 91.3725H27.5163L26.5953 102.136V113.549L27.5163 124.257H20.1209ZM39.6 119.042L28.7721 107.574V107.027L38.5488 97.4121L41.786 91.3817H49.8419V91.8171L34.586 106.166L46.2047 118.717L51.814 123.775V124.322L42.9023 124.702L39.6 119.051V119.042Z" fill="var(--fill-0, white)"/>
<path id="Vector_4" d="M73.2837 102.136V105.564H79.6186L85.8977 105.017L85.3674 109.093H73.2837V113.549L73.8791 120.45H82.5954L89.7953 119.801L89.1349 124.581L81.9349 124.257H74.2046L66.8093 124.581L67.7302 113.493V102.081L66.8093 91.3725H89.2L88.6047 95.8281L81.2093 95.1796H73.8791L73.2837 102.136Z" fill="var(--fill-0, white)"/>
<path id="Vector_5" d="M22.4558 144.84L22.4093 144.191C23.386 144.191 24.0837 144.025 24.5116 143.691C24.9395 143.358 25.1535 142.802 25.1535 142.015C25.1535 140.44 24.4186 139.652 22.9395 139.652C22.707 139.652 22.4 139.68 22.0279 139.736L21.8605 142.209V145.72L22.093 149.018H20.214L20.4465 145.701V141.199L20.1395 138.995C21.5256 138.763 22.5767 138.643 23.2837 138.643C25.6279 138.643 26.7907 139.708 26.7907 141.839C26.7907 142.709 26.5581 143.404 26.093 143.941C25.6279 144.479 24.9674 144.793 24.1023 144.923L22.4558 144.84Z" fill="var(--fill-0, white)"/>
<path id="Vector_6" d="M34.9395 149.018L35.1721 145.701V142.191L34.9395 138.893H36.8186L36.586 142.209V143.108H41.7581V142.191L41.5256 138.893H43.4046L43.1721 142.209V145.72L43.4046 149.018H41.5256L41.7581 145.701V144.284H36.586V145.72L36.8186 149.018H34.9395Z" fill="var(--fill-0, white)"/>
<path id="Vector_7" d="M56.4465 149.268C54.9488 149.268 53.786 148.804 52.9581 147.887C52.1302 146.97 51.7116 145.692 51.7116 144.052C51.7116 142.413 52.1674 141.107 53.0698 140.125C53.9721 139.143 55.1814 138.652 56.6791 138.652C58.1767 138.652 59.3395 139.106 60.1767 140.023C61.0047 140.94 61.4233 142.218 61.4233 143.849C61.4233 145.479 60.9674 146.804 60.0558 147.786C59.1442 148.777 57.9349 149.268 56.4465 149.268ZM53.414 144.052C53.414 145.359 53.7116 146.368 54.307 147.091C54.9023 147.813 55.7302 148.165 56.8093 148.165C57.4512 148.165 58.0651 148.036 58.6791 147.776C58.9674 147.489 59.2186 146.961 59.4233 146.211C59.6279 145.46 59.7302 144.682 59.7302 143.895C59.7302 142.543 59.4326 141.514 58.8465 140.81C58.2605 140.106 57.4046 139.745 56.2884 139.745C55.6465 139.745 55.0419 139.875 54.4744 140.134C54.186 140.412 53.9349 140.94 53.7302 141.709C53.5256 142.478 53.4233 143.256 53.4233 144.052H53.414Z" fill="var(--fill-0, white)"/>
<path id="Vector_8" d="M68.7349 140.171L68.8186 138.902H74.614L76.4465 138.698L76.2791 140.171L74.4093 140.069H73.3209L73.1721 142.209V145.72L73.4047 149.018H71.5256L71.7581 145.701V142.191L71.5907 140.069H70.586L68.7349 140.171Z" fill="var(--fill-0, white)"/>
<path id="Vector_9" d="M88.1581 149.268C86.6605 149.268 85.4977 148.804 84.6698 147.887C83.8419 146.97 83.4233 145.692 83.4233 144.052C83.4233 142.413 83.8791 141.107 84.7814 140.125C85.6837 139.143 86.893 138.652 88.3907 138.652C89.8884 138.652 91.0512 139.106 91.8884 140.023C92.7163 140.94 93.1349 142.218 93.1349 143.849C93.1349 145.479 92.6791 146.804 91.7674 147.786C90.8558 148.777 89.6465 149.268 88.1581 149.268ZM85.1256 144.052C85.1256 145.359 85.4233 146.368 86.0186 147.091C86.614 147.813 87.4419 148.165 88.5209 148.165C89.1628 148.165 89.7767 148.036 90.3907 147.776C90.6791 147.489 90.9302 146.961 91.1349 146.211C91.3395 145.46 91.4419 144.682 91.4419 143.895C91.4419 142.543 91.1442 141.514 90.5581 140.81C89.9721 140.106 89.1163 139.745 88 139.745C87.3581 139.745 86.7535 139.875 86.186 140.134C85.8977 140.412 85.6465 140.94 85.4419 141.709C85.2372 142.478 85.1349 143.256 85.1349 144.052H85.1256Z" fill="var(--fill-0, white)"/>
<path id="Vector_10" d="M43.5907 0L43.0512 2.51033V13.9689L43.5907 16.4608H39.2465L39.786 13.9597V2.49181L39.2465 0H43.5907Z" fill="var(--fill-0, white)"/>
<path id="Vector_11" d="M71.107 0L70.5674 2.51033V13.9689L71.107 16.4608H66.7628L67.3023 13.9597V2.49181L66.7628 0H71.107Z" fill="var(--fill-0, white)"/>
<path id="Vector_12" d="M0.353488 19.2397L17.0512 19.7863H93.3861L110 19.2397V23.5656L93.3023 23.0284H16.9674L0.353488 23.5656V19.2397Z" fill="var(--fill-0, white)"/>
<path id="Vector_13" d="M6.60465 168.915L0 168.665V173L6.60465 172.75V168.915Z" fill="var(--fill-0, white)"/>
<path id="Vector_14" d="M103.098 168.915V172.75L109.702 173V168.665L103.098 168.915Z" fill="var(--fill-0, white)"/>
<path id="Vector_15" d="M99.7116 168.989L92.9488 169.211H16.614L9.9907 168.998V172.667L16.5302 172.453H92.8651L99.7116 172.676V168.989Z" fill="var(--fill-0, white)"/>
</g>
<defs>
<clipPath id="clip0_0_8">
<rect width="110" height="173" fill="white"/>
</clipPath>
</defs>
</svg>
