<svg preserveAspectRatio="none" width="100%" height="100%" overflow="visible" style="display: block;" viewBox="0 0 18 18" fill="none" xmlns="http://www.w3.org/2000/svg">
<g id="_&#227;&#131;&#172;&#227;&#130;&#164;&#227;&#131;&#164;&#227;&#131;&#188;_1" clip-path="url(#clip0_0_4)">
<path id="Vector" d="M17.9541 5.2918C17.9119 4.33544 17.7572 3.67779 17.5356 3.1082C17.3069 2.50338 16.9553 1.96197 16.4945 1.5118C16.0442 1.05458 15.4992 0.699509 14.9013 0.474421C14.3281 0.252855 13.6738 0.0982172 12.7173 0.0559471C11.7533 0.0101545 11.4475 -0.000412983 9.00346 -0.000412983C6.55942 -0.000412983 6.25326 0.0101545 5.29283 0.0524246C4.33629 0.0946946 3.67851 0.249333 3.10881 0.470898C2.50387 0.699509 1.96236 1.05105 1.51209 1.5118C1.05478 1.96197 0.699998 2.50691 0.474514 3.10468C0.252905 3.67779 0.0982364 4.33192 0.055958 5.28828C0.0101565 6.25203 -0.000413064 6.55779 -0.000413064 9.0017C-0.000413064 11.4456 0.0101565 11.7514 0.0524349 12.7113C0.0947132 13.6676 0.249381 14.3253 0.47099 14.8949C0.699646 15.4997 1.05478 16.0411 1.51174 16.4913C1.96201 16.9485 2.50704 17.3035 3.10493 17.5286C3.67815 17.7502 4.33241 17.9048 5.28896 17.9467C6.24903 17.989 6.55519 17.9996 8.99959 17.9996C11.444 17.9996 11.7498 17.989 12.7099 17.9467C13.6664 17.9048 14.3242 17.7498 14.8939 17.5286C16.1038 17.0608 17.0603 16.1045 17.5282 14.8949C17.7498 14.3217 17.9045 13.6676 17.9467 12.7113C17.989 11.7514 17.9996 11.4453 17.9996 9.0017C17.9996 6.55814 17.9961 6.25203 17.9538 5.2918H17.9541ZM16.3331 12.6412C16.2944 13.5204 16.1467 13.9949 16.0234 14.3115C15.7208 15.0956 15.0986 15.7181 14.314 16.0206C13.9976 16.1436 13.5191 16.2912 12.6433 16.3299C11.6938 16.3722 11.4087 16.3828 9.00663 16.3828C6.60452 16.3828 6.31597 16.3722 5.36999 16.3299C4.4906 16.2912 4.01603 16.1436 3.69929 16.0206C3.30892 15.8766 2.95379 15.648 2.66559 15.3489C2.36682 15.0569 2.13781 14.7053 1.99371 14.315C1.87076 13.9987 1.72313 13.5204 1.68438 12.6447C1.6421 11.6954 1.63153 11.4104 1.63153 9.00875C1.63153 6.6071 1.6421 6.31861 1.68438 5.37282C1.72313 4.4936 1.87076 4.01912 1.99371 3.7028C2.13781 3.3125 2.36682 2.95743 2.66911 2.66894C2.96083 2.37023 3.31245 2.14162 3.70282 1.9972C4.0192 1.87426 4.49765 1.72667 5.37352 1.68757C6.32302 1.6453 6.60804 1.63473 9.01016 1.63473C11.4123 1.63473 11.7008 1.6453 12.6468 1.68757C13.5262 1.72632 14.0008 1.87391 14.3175 1.9972C14.7079 2.14127 15.063 2.36988 15.3512 2.66894C15.6503 2.96096 15.879 3.3125 16.0231 3.7028C16.146 4.01912 16.2937 4.49712 16.3328 5.37282C16.375 6.32213 16.3856 6.6071 16.3856 9.00875C16.3856 11.4104 16.375 11.6915 16.3328 12.6412H16.3331Z" fill="var(--fill-0, white)"/>
<path id="Vector_2" d="M9.12402 4.60145C6.57076 4.60145 4.49912 6.67233 4.49912 9.22544C4.49912 11.7786 6.57076 13.8494 9.12402 13.8494C11.6773 13.8494 13.7489 11.7782 13.7489 9.22544C13.7489 6.67268 11.6776 4.60145 9.12402 4.60145ZM9.12402 12.2249C7.46741 12.2249 6.12402 10.8817 6.12402 9.22544C6.12402 7.56916 7.46776 6.22603 9.12402 6.22603C10.7803 6.22603 12.124 7.56916 12.124 9.22544C12.124 10.8817 10.7806 12.2249 9.12402 12.2249Z" fill="var(--fill-0, white)"/>
<path id="Vector_3" d="M15.0113 4.41863C15.0113 5.01499 14.5279 5.49793 13.9314 5.49793C13.3349 5.49793 12.8519 5.01464 12.8519 4.41863C12.8519 3.82262 13.3353 3.33933 13.9314 3.33933C14.5275 3.33933 15.0113 3.82262 15.0113 4.41863Z" fill="var(--fill-0, white)"/>
</g>
<defs>
<clipPath id="clip0_0_4">
<rect width="18" height="18" fill="white"/>
</clipPath>
</defs>
</svg>
