<svg preserveAspectRatio="none" width="100%" height="100%" overflow="visible" style="display: block;" viewBox="0 0 57 53.9988" fill="none" xmlns="http://www.w3.org/2000/svg">
<path id="Vector" d="M28.5 0C12.7894 0 0 10.3263 0 23.0167C0 34.3834 10.1412 43.9055 23.8331 45.7164C24.7623 45.9115 26.0255 46.3268 26.3462 47.1104C26.6312 47.8221 26.5347 48.9212 26.4367 49.6623L26.0478 52.0703C25.9409 52.782 25.4778 54.8717 28.5386 53.5935C31.6038 52.3213 44.9632 43.9584 50.9482 37.1143C55.0436 32.6533 57 28.0822 57 23.0152C57 10.3263 44.2106 0 28.5 0ZM17.3449 30.5622H11.6776C10.8582 30.5622 10.1813 29.8886 10.1813 29.0757V17.8029C10.1813 16.9885 10.8582 16.3149 11.6776 16.3149C12.497 16.3149 13.1738 16.9885 13.1738 17.8029V27.5862H17.3434C18.1702 27.5862 18.8367 28.2554 18.8367 29.0757C18.8367 29.896 18.1673 30.5622 17.3434 30.5622H17.3449ZM23.2008 29.0771C23.2008 29.8886 22.5313 30.5637 21.7016 30.5637C20.8718 30.5637 20.2127 29.8901 20.2127 29.0771V17.8043C20.2127 16.9899 20.8822 16.3164 21.709 16.3164C22.5358 16.3164 23.2008 16.9899 23.2008 17.8043V29.0771ZM36.8363 29.0771C36.8363 29.7155 36.4221 30.2819 35.8105 30.4859C35.6591 30.5358 35.4944 30.5593 35.3385 30.5593C34.8383 30.5593 34.4108 30.3465 34.1273 29.9679L28.3248 22.1303V29.0757C28.3248 29.8886 27.6628 30.5622 26.8256 30.5622C25.9884 30.5622 25.3383 29.8886 25.3383 29.0757V17.8058C25.3383 17.1675 25.7495 16.601 26.3595 16.3985C26.502 16.3442 26.6831 16.3208 26.8197 16.3208C27.2828 16.3208 27.7103 16.5673 27.9953 16.9224L33.8423 24.7908V17.8058C33.8423 16.9914 34.5117 16.3178 35.3385 16.3178C36.1653 16.3178 36.8348 16.9914 36.8348 17.8058V29.0786L36.8363 29.0771ZM45.9919 21.9513C46.8216 21.9513 47.4881 22.6249 47.4881 23.4422C47.4881 24.2596 46.8202 24.9302 45.9919 24.9302H41.8238V27.5877H45.9919C46.8216 27.5877 47.4881 28.2569 47.4881 29.0771C47.4881 29.8974 46.8202 30.5637 45.9919 30.5637H40.3245C39.5052 30.5637 38.8357 29.8901 38.8357 29.0771V17.8043C38.8357 16.9899 39.5052 16.3164 40.332 16.3164H45.9993C46.8216 16.3164 47.4896 16.9899 47.4896 17.8043C47.4896 18.6188 46.8216 19.2938 45.9934 19.2938H41.8252V21.9513H45.9934H45.9919Z" fill="var(--fill-0, #710B26)"/>
</svg>
