<svg preserveAspectRatio="none" width="100%" height="100%" overflow="visible" style="display: block;" viewBox="0 0 280 441" fill="none" xmlns="http://www.w3.org/2000/svg">
<g id="&#227;&#131;&#173;&#227;&#130;&#180;&#231;&#156;&#159;&#227;&#130;&#147;&#228;&#184;&#173;" clip-path="url(#clip0_0_4)">
<path id="Vector" d="M51.2169 200.594L53.5611 173.156V144.064L51.2169 116.767H70.0414L67.6973 144.206V173.297L70.0414 200.594H51.2169ZM100.8 187.3L73.2381 158.067V156.674L98.1243 132.163L106.364 116.791H126.87V117.901L88.0372 154.478L117.612 186.473L131.89 199.366V200.759L109.206 201.728L100.8 187.323V187.3Z" fill="var(--fill-0, white)"/>
<path id="Vector_2" d="M154.716 200.736L185.783 126.614L188.553 117.051L200.085 116.224L232.169 200.594H215.097L210.716 179.673H174.677L169.421 200.736H154.693H154.716ZM193.526 130.345L178.797 169.968H207.378L193.526 130.345Z" fill="var(--fill-0, white)"/>
<path id="Vector_3" d="M51.2169 316.747L53.5611 289.309V260.217L51.2169 232.921H70.0414L67.6973 260.359V289.451L70.0414 316.747H51.2169ZM100.8 303.453L73.2381 274.22V272.827L98.1243 248.316L106.364 232.944H126.87V234.054L88.0372 270.631L117.612 302.627L131.89 315.519V316.913L109.206 317.881L100.8 303.477V303.453Z" fill="var(--fill-0, white)"/>
<path id="Vector_4" d="M186.54 260.359V269.096H202.666L218.649 267.703L217.299 278.093H186.54V289.451L188.056 307.042H210.243L228.57 305.389L226.889 317.574L208.562 316.747H188.885L170.06 317.574L172.404 289.309V260.217L170.06 232.921H227.055L225.539 244.278L206.715 242.626H188.056L186.54 260.359Z" fill="var(--fill-0, white)"/>
<path id="Vector_5" d="M57.1602 369.216L57.0419 367.563C59.5281 367.563 61.304 367.138 62.3932 366.288C63.4825 365.438 64.0271 364.021 64.0271 362.014C64.0271 358 62.1564 355.993 58.3915 355.993C57.7996 355.993 57.0182 356.063 56.071 356.205L55.6448 362.51V371.459L56.2368 379.865H51.4537L52.0457 371.412V359.936L51.2643 354.316C54.7924 353.726 57.4681 353.419 59.2677 353.419C65.2347 353.419 68.1945 356.134 68.1945 361.565C68.1945 363.785 67.6025 365.556 66.4186 366.925C65.2347 368.295 63.5535 369.098 61.3514 369.428L57.1602 369.216Z" fill="var(--fill-0, white)"/>
<path id="Vector_6" d="M88.937 379.865L89.529 371.412V362.463L88.937 354.056H93.7201L93.1281 362.51V364.8H106.293V362.463L105.701 354.056H110.485L109.893 362.51V371.459L110.485 379.865H105.701L106.293 371.412V367.799H93.1281V371.459L93.7201 379.865H88.937Z" fill="var(--fill-0, white)"/>
<path id="Vector_7" d="M143.682 380.503C139.87 380.503 136.91 379.322 134.803 376.985C132.695 374.647 131.63 371.388 131.63 367.209C131.63 363.029 132.79 359.7 135.087 357.197C137.384 354.694 140.462 353.442 144.274 353.442C148.086 353.442 151.046 354.599 153.177 356.937C155.285 359.275 156.35 362.533 156.35 366.689C156.35 370.845 155.19 374.222 152.869 376.725C150.549 379.251 147.471 380.503 143.682 380.503ZM135.963 367.209C135.963 370.538 136.721 373.112 138.236 374.954C139.751 376.796 141.859 377.693 144.605 377.693C146.239 377.693 147.802 377.362 149.365 376.701C150.099 375.969 150.738 374.623 151.259 372.711C151.78 370.798 152.041 368.814 152.041 366.807C152.041 363.36 151.283 360.739 149.791 358.944C148.299 357.15 146.121 356.229 143.279 356.229C141.646 356.229 140.107 356.559 138.662 357.22C137.928 357.929 137.289 359.275 136.768 361.235C136.247 363.195 135.986 365.178 135.986 367.209H135.963Z" fill="var(--fill-0, white)"/>
<path id="Vector_8" d="M174.962 357.315L175.175 354.08H189.926L194.591 353.56L194.165 357.315L189.405 357.055H186.635L186.256 362.51V371.459L186.848 379.865H182.065L182.657 371.412V362.463L182.231 357.055H179.674L174.962 357.315Z" fill="var(--fill-0, white)"/>
<path id="Vector_9" d="M224.403 380.503C220.59 380.503 217.63 379.322 215.523 376.985C213.416 374.647 212.35 371.388 212.35 367.209C212.35 363.029 213.51 359.7 215.807 357.197C218.104 354.694 221.182 353.442 224.994 353.442C228.807 353.442 231.767 354.599 233.898 356.937C236.005 359.275 237.071 362.533 237.071 366.689C237.071 370.845 235.91 374.222 233.59 376.725C231.269 379.251 228.191 380.503 224.403 380.503ZM216.683 367.209C216.683 370.538 217.441 373.112 218.956 374.954C220.472 376.796 222.579 377.693 225.326 377.693C226.96 377.693 228.523 377.362 230.085 376.701C230.819 375.969 231.459 374.623 231.98 372.711C232.501 370.798 232.761 368.814 232.761 366.807C232.761 363.36 232.003 360.739 230.512 358.944C229.02 357.15 226.841 356.229 224 356.229C222.366 356.229 220.827 356.559 219.383 357.22C218.649 357.929 218.009 359.275 217.488 361.235C216.967 363.195 216.707 365.178 216.707 367.209H216.683Z" fill="var(--fill-0, white)"/>
<path id="Vector_10" d="M110.958 0L109.585 6.39918V35.6087L110.958 41.9606H99.9002L101.274 35.5851V6.35195L99.9002 0H110.958Z" fill="var(--fill-0, white)"/>
<path id="Vector_11" d="M181 0L179.626 6.39918V35.6087L181 41.9606H169.942L171.315 35.5851V6.35195L169.942 0H181Z" fill="var(--fill-0, white)"/>
<path id="Vector_12" d="M0.899789 49.0446L43.403 50.4378H237.71L280 49.0446V60.072L237.497 58.7024H43.1899L0.899789 60.072V49.0446Z" fill="var(--fill-0, white)"/>
<path id="Vector_13" d="M16.8118 430.587L0 429.949V441L16.8118 440.362V430.587Z" fill="var(--fill-0, white)"/>
<path id="Vector_14" d="M262.43 430.587V440.362L279.242 441V429.949L262.43 430.587Z" fill="var(--fill-0, white)"/>
<path id="Vector_15" d="M253.811 430.775L236.597 431.342H42.2901L25.4309 430.799V440.15L42.077 439.607H236.384L253.811 440.174V430.775Z" fill="var(--fill-0, white)"/>
</g>
<defs>
<clipPath id="clip0_0_4">
<rect width="280" height="441" fill="white"/>
</clipPath>
</defs>
</svg>
